# xmcd
#
# Track frame offsets: 
#        150
#        19616
#        29759
#        44776
#        63396
#        77653
#        89425
#        101299
#        112645
#        125509
#        140279
#        159191
#        175524
#        192254
#        202418
#        215874
#        231899
#        248338
#        263786
#        281304
#        291355
#        302635
#        312367
#
# Disc length: 4394 seconds
#
# Revision: 0
# Processed by: cddbd v1.5.2PL0 Copyright (c) Steve Scherf et al.
# Submitted via: ExactAudioCopy v1.3
#
DISCID=43112817
DTITLE=Errol Dixon - Midnight Train
DYEAR=2018
DGENRE=Blues
TTITLE0=Stormy Monday
TTITLE1=Foot Stompin' Boogie
TTITLE2=Hey Bartender
TTITLE3=Stagger Lee
TTITLE4=Pretty Baby
TTITLE5=Yancey Stroll
TTITLE6=Baby, I Love You So
TTITLE7=Strollin' The Boogie
TTITLE8=Kansas City
TTITLE9=Next Time You See Me
TTITLE10=I've Got The Blues
TTITLE11=Chicken Shack
TTITLE12=Driftin' Funky Blues
TTITLE13=Rock Me Baby
TTITLE14=Jumpin' The Boogie
TTITLE15=Can You Hear Me Baby
TTITLE16=Goodbye Baby
TTITLE17=Dixon Boogie
TTITLE18=Midnight Train
TTITLE19=See See Rider
TTITLE20=Got My Mojo Working
TTITLE21=Bye Bye Baby
TTITLE22=Jump Children
EXTD=
EXTT0=
EXTT1=
EXTT2=
EXTT3=
EXTT4=
EXTT5=
EXTT6=
EXTT7=
EXTT8=
EXTT9=
EXTT10=
EXTT11=
EXTT12=
EXTT13=
EXTT14=
EXTT15=
EXTT16=
EXTT17=
EXTT18=
EXTT19=
EXTT20=
EXTT21=
EXTT22=
PLAYORDER=
